<?xml version="1.0" standalone="no"?>
<!DOCTYPE svg PUBLIC "-//W3C//DTD SVG 20010904//EN"
 "http://www.w3.org/TR/2001/REC-SVG-20010904/DTD/svg10.dtd">
<svg version="1.0" xmlns="http://www.w3.org/2000/svg"
 width="1024.000000pt" height="1024.000000pt" viewBox="0 0 1024.000000 1024.000000"
 preserveAspectRatio="xMidYMid meet">

<g transform="translate(0.000000,1024.000000) scale(0.100000,-0.100000)"
fill="#000000" stroke="none">
<path d="M0 7940 c0 -2197 1 -2300 18 -2300 10 0 26 6 37 13 11 7 43 21 70 31
28 10 64 24 80 31 46 20 335 127 348 129 7 1 17 5 24 9 10 6 233 88 284 104 9
2 35 -5 57 -16 23 -12 57 -21 77 -21 43 0 47 -21 8 -40 -82 -38 -193 -82 -373
-145 -52 -18 -142 -51 -200 -73 -58 -22 -168 -61 -245 -87 -194 -65 -185 -57
-185 -160 0 -47 1 -85 3 -85 2 0 38 18 81 40 42 22 83 40 90 40 8 0 47 14 87
31 41 18 115 46 164 64 190 68 497 183 515 193 8 5 24 6 35 1 11 -4 48 -8 82
-8 34 -1 64 -5 67 -10 8 -12 -99 -62 -239 -113 -150 -55 -310 -113 -435 -158
-97 -35 -138 -51 -350 -139 -41 -17 -76 -31 -76 -31 -1 0 1 10 3 23 3 14 -2
29 -11 36 -14 12 -16 0 -16 -123 0 -75 1 -136 3 -136 2 0 59 25 128 56 223
101 470 205 621 263 57 22 128 50 158 64 30 14 127 52 215 85 157 60 217 85
343 144 35 16 73 28 85 26 13 -2 -9 -15 -64 -37 -46 -19 -97 -40 -114 -47 -16
-7 -142 -57 -280 -112 -251 -100 -633 -255 -670 -272 -11 -5 -69 -32 -130 -60
-60 -28 -146 -65 -190 -82 -44 -17 -86 -35 -92 -41 -10 -7 -13 -61 -13 -208
l0 -198 57 30 c31 16 59 26 63 22 7 -8 52 -366 52 -419 1 -16 9 -92 19 -169
34 -265 35 -249 -18 -280 -22 -13 -33 -27 -33 -42 0 -32 -30 -103 -44 -103
-37 1 -66 80 -67 183 0 40 -6 106 -13 147 -12 64 -14 -120 -15 -1232 -1 -972
2 -1308 10 -1308 12 0 101 -77 108 -93 2 -5 -12 -25 -30 -44 -19 -20 -29 -37
-24 -40 64 -26 104 -54 124 -85 19 -30 35 -41 80 -54 30 -9 68 -25 83 -36 l28
-19 27 25 c15 14 24 28 20 32 -3 4 10 16 31 26 88 47 104 89 50 139 -18 16
-38 29 -45 29 -7 0 -13 5 -13 10 0 6 -6 10 -14 10 -8 0 -16 4 -18 8 -1 5 -34
31 -73 58 -38 26 -79 56 -90 66 -10 10 -36 23 -56 28 -45 12 -56 35 -26 54 32
20 161 39 217 32 36 -5 49 -3 53 8 3 7 27 24 54 37 26 13 77 39 113 59 36 20
81 42 100 49 19 8 49 20 67 27 17 8 44 14 61 14 16 0 40 8 53 19 21 16 26 17
60 3 43 -16 57 -47 29 -62 -29 -16 -58 -12 -80 10 -20 20 -20 20 -20 -6 0 -14
-4 -23 -9 -20 -5 3 -14 0 -20 -8 -6 -7 -31 -19 -56 -26 -44 -12 -74 -35 -62
-47 4 -3 2 -12 -4 -20 -16 -19 12 -48 76 -80 28 -14 68 -38 90 -53 38 -26 46
-28 120 -24 85 5 157 31 178 65 7 11 15 19 19 19 4 0 32 16 62 35 30 19 62 35
69 35 19 0 49 -74 40 -97 -4 -10 -14 -25 -22 -34 -16 -15 -136 -89 -196 -120
-23 -11 -30 -22 -30 -44 0 -17 -6 -40 -13 -53 -7 -12 -10 -27 -7 -32 11 -18
-146 -12 -180 6 -90 49 -85 48 -101 25 -36 -51 -88 -87 -212 -147 -73 -35
-138 -64 -146 -64 -27 0 -53 -36 -60 -81 -10 -65 -33 -84 -108 -85 -33 -1 -75
2 -94 6 -31 7 -34 6 -45 -27 -16 -49 -76 -86 -129 -81 l-40 4 0 -148 c0 -137
1 -148 18 -148 11 0 27 -8 36 -19 14 -15 16 -31 10 -100 -7 -81 -7 -81 -35
-81 l-29 0 0 -155 0 -155 4660 0 4660 0 0 48 c0 57 18 85 68 111 31 15 106 31
172 35 23 2 124 -43 132 -59 5 -7 22 -16 38 -20 16 -4 32 -11 35 -16 3 -4 22
-16 42 -26 22 -10 40 -28 47 -45 l10 -28 188 0 188 0 0 3075 0 3076 -31 -36
c-43 -49 -74 -46 -73 8 2 51 38 91 76 83 l28 -5 0 652 c0 407 -4 646 -10 637
-5 -8 -16 -45 -26 -83 -9 -37 -24 -77 -34 -89 -17 -22 -18 -21 -35 56 -10 43
-15 97 -13 120 5 41 4 43 -31 58 -90 39 -98 34 -117 -79 -8 -42 -20 -83 -27
-91 -26 -25 -44 10 -52 98 -5 58 -11 80 -21 80 -8 0 -14 4 -14 9 0 5 -17 12
-37 16 -21 4 -52 15 -69 26 -39 24 -50 24 -59 2 -7 -19 -46 -391 -48 -458 -1
-44 -17 -71 -29 -51 -9 13 -10 70 -2 79 13 12 3 272 -13 341 -9 39 -18 87 -20
106 -9 62 -78 93 -107 48 -8 -13 -17 -48 -21 -78 -4 -30 -11 -63 -17 -72 -14
-27 -38 -22 -38 8 0 14 -5 35 -11 46 -6 12 -11 49 -11 83 0 34 -3 66 -7 73 -3
6 -31 12 -61 14 l-55 3 -12 -115 c-7 -63 -17 -116 -22 -118 -6 -2 -11 -21 -11
-43 0 -21 -4 -39 -9 -39 -10 0 -25 192 -24 308 1 70 0 74 -26 83 -14 5 -50 22
-80 37 -50 25 -54 25 -66 9 -8 -11 -16 -61 -19 -120 -19 -344 -27 -455 -35
-482 -7 -21 -10 -24 -10 -10 -1 15 -3 17 -10 6 -17 -27 -22 47 -19 291 2 234
-3 293 -30 336 -11 17 -110 51 -133 45 -27 -7 -39 -83 -39 -241 0 -163 -15
-351 -32 -387 -14 -31 -34 -32 -44 -2 -12 35 -8 296 5 358 20 96 -16 210 -72
232 -10 4 -17 17 -17 32 0 63 -53 126 -82 97 -6 -6 -11 -117 -13 -279 -3 -223
-13 -376 -27 -388 -2 -1 -14 -6 -27 -10 -15 -5 -21 -4 -17 3 3 6 2 14 -4 17
-7 5 -11 73 -11 198 0 106 -2 229 -5 274 -8 98 -2 125 32 156 21 20 24 29 18
48 -9 26 -11 34 -13 48 -2 13 -66 41 -95 41 -14 0 -35 -9 -46 -20 -28 -28 -44
-25 -88 14 -20 19 -62 42 -92 51 -30 10 -63 26 -72 36 -27 31 -69 34 -118 9
-33 -17 -55 -21 -89 -17 -43 5 -51 11 -77 54 -10 16 -14 17 -38 4 -15 -8 -32
-26 -39 -40 -15 -32 -65 -47 -109 -35 -29 8 -34 15 -38 49 -8 59 -13 62 -72
57 -50 -4 -55 -2 -91 32 -21 20 -43 36 -48 36 -16 0 -118 74 -119 85 0 6 7 21
16 34 16 23 18 23 163 16 147 -7 245 -25 349 -65 34 -13 76 -20 122 -20 38 0
79 -4 92 -9 13 -5 53 -16 91 -25 37 -8 95 -27 130 -42 43 -18 77 -26 113 -25
51 2 106 -18 183 -66 29 -19 44 -21 96 -16 59 5 66 4 150 -41 65 -34 100 -46
131 -46 26 0 46 -6 51 -14 4 -7 30 -23 58 -35 27 -12 52 -27 56 -33 5 -8 19
-6 48 6 44 17 73 11 85 -19 8 -21 151 -88 174 -81 10 4 29 17 40 29 l22 23
-73 21 c-39 11 -108 30 -152 42 -44 13 -140 49 -214 82 -74 33 -173 69 -220
81 -47 12 -132 43 -189 70 -56 26 -105 48 -107 48 -3 0 -41 21 -85 46 -57 34
-80 52 -80 66 0 15 4 18 18 13 107 -45 328 -117 378 -124 35 -5 79 -19 98 -30
18 -12 86 -37 151 -57 64 -19 124 -39 134 -44 23 -12 227 -90 236 -90 10 0
132 -49 202 -81 34 -16 65 -29 68 -29 9 0 1 34 -10 43 -20 17 97 -6 172 -33
43 -15 103 -37 133 -47 50 -18 131 -43 335 -101 39 -11 78 -23 88 -27 16 -7
17 18 17 429 l0 437 -32 -24 c-30 -22 -104 -59 -203 -102 -22 -10 -70 -20
-107 -23 -60 -4 -74 -1 -123 23 -98 50 -85 80 54 123 42 13 105 35 141 49 79
31 146 33 218 5 l52 -20 0 734 0 734 -5120 0 -5120 0 0 -2300z m4603 2052 c24
-21 21 -49 -8 -77 -32 -33 -112 -36 -140 -5 -18 20 -18 21 15 55 43 44 98 56
133 27z m3701 -96 c61 -21 96 -55 89 -86 -8 -37 -31 -56 -98 -80 -151 -56
-217 -60 -269 -19 -21 16 -26 29 -26 64 0 49 14 63 105 103 82 35 136 40 199
18z m-494 -31 c7 -8 19 -15 27 -15 8 0 12 -4 9 -9 -3 -5 1 -14 9 -21 34 -29
14 -69 -65 -129 -25 -19 -52 -42 -61 -51 -19 -19 -21 -50 -2 -50 7 0 13 -9 13
-19 0 -29 -101 -84 -157 -85 -34 -1 -48 4 -66 24 -12 14 -37 37 -56 49 -34 25
-76 100 -87 157 -10 53 8 70 98 97 46 14 112 35 148 46 80 24 172 27 190 6z
m-3105 -184 c23 -10 53 -33 69 -52 25 -29 28 -39 24 -88 -6 -68 -41 -103 -117
-120 -75 -16 -101 -14 -151 12 -52 26 -78 67 -79 124 -2 104 143 175 254 124z
m1611 -39 c13 -15 24 -30 24 -34 0 -3 16 -16 34 -28 19 -11 38 -30 41 -41 6
-17 13 -20 38 -16 33 4 67 -24 86 -73 15 -40 41 -212 41 -277 l0 -59 61 -53
c52 -46 60 -57 57 -85 -3 -28 -8 -33 -63 -50 -75 -24 -118 -14 -219 49 -66 40
-162 71 -206 65 -50 -7 -130 0 -156 13 -16 8 -45 33 -65 55 -33 36 -41 40
-105 47 -71 7 -120 29 -162 72 -13 12 -32 23 -43 23 -23 0 -46 20 -49 41 -5
35 0 40 33 34 26 -5 38 -1 57 17 45 42 97 113 104 141 3 15 11 27 17 27 6 0 7
5 4 10 -10 16 34 12 65 -7 22 -13 30 -27 39 -72 6 -31 20 -73 31 -94 11 -20
20 -44 20 -52 0 -26 34 -16 47 13 7 15 28 70 47 123 48 135 64 164 129 232 24
24 60 16 93 -21z m1811 -322 c42 -25 56 -52 44 -83 -6 -14 -8 -27 -5 -30 3 -2
30 -2 61 0 72 6 119 -3 144 -28 24 -24 25 -73 0 -96 -32 -30 -29 -49 14 -89
25 -23 35 -39 28 -41 -7 -3 -13 -11 -13 -19 0 -7 -12 -16 -27 -20 -16 -3 -33
-7 -39 -9 -27 -8 -170 16 -210 36 -43 20 -102 28 -123 15 -17 -11 -61 5 -61
21 0 10 -6 13 -15 9 -10 -4 -19 2 -24 17 -5 13 -20 31 -33 39 -23 15 -28 14
-74 -9 -60 -30 -98 -27 -155 15 l-40 30 -39 -19 c-34 -16 -46 -17 -90 -8 -60
13 -85 42 -85 101 0 31 7 44 30 63 74 60 122 66 188 21 34 -24 57 -26 90 -11
12 5 48 0 96 -14 93 -25 108 -26 127 -6 9 8 23 15 33 15 14 0 18 9 19 38 3 73
87 106 159 62z m-2979 -61 c24 -12 46 -28 49 -35 3 -9 21 -14 47 -14 80 -1
142 -54 148 -125 3 -33 -1 -41 -22 -52 -52 -28 -197 9 -237 61 -18 23 -28 26
-82 26 -121 0 -169 63 -102 131 26 26 36 29 92 29 44 0 76 -7 107 -21z m696
-288 c6 0 1 -7 -10 -15 -14 -11 -21 -11 -26 -3 -6 9 -10 8 -17 -2 -6 -9 -11
-10 -15 -2 -14 23 9 30 68 22z m1086 -41 c188 -55 513 -187 576 -235 43 -33
60 -40 169 -74 39 -11 85 -30 103 -41 33 -20 42 -40 19 -40 -8 0 -41 -14 -74
-30 l-60 -30 -109 26 c-233 56 -341 105 -403 183 -22 28 -46 45 -81 56 -28 9
-72 32 -98 50 -27 18 -71 44 -98 58 -70 36 -99 61 -91 80 9 23 64 22 147 -3z
m-1020 -9 c0 -20 -17 -37 -27 -28 -7 8 7 47 18 47 5 0 9 -9 9 -19z m-4284 -34
c10 -10 -5 -59 -16 -52 -6 3 -10 1 -10 -4 0 -6 -4 -11 -10 -11 -10 0 -14 62
-4 72 7 7 31 4 40 -5z m4401 -23 c-3 -3 -12 -4 -19 -1 -8 3 -5 6 6 6 11 1 17
-2 13 -5z m3564 -107 c71 -48 37 -78 -63 -57 -40 9 -62 19 -70 33 -25 47 73
65 133 24z m-8093 -50 c2 -10 -3 -17 -12 -17 -9 0 -16 -7 -16 -15 0 -8 -4 -15
-9 -15 -14 0 -19 35 -9 54 12 21 42 17 46 -7z m-420 -229 c30 -30 -11 -88 -63
-88 -9 0 -28 -9 -42 -20 -39 -30 -93 -24 -93 10 0 22 17 36 89 76 61 35 91 40
109 22z m-383 -158 c12 -19 -8 -60 -39 -79 -38 -23 -152 -54 -262 -71 -69 -11
-94 -11 -180 4 -98 16 -143 38 -116 55 7 4 63 13 125 21 172 19 401 60 414 73
10 10 51 8 58 -3z m6049 -51 c28 -32 31 -65 32 -316 l2 -262 -36 -12 c-34 -11
-37 -10 -63 19 -26 28 -27 37 -35 178 -13 224 -11 334 5 372 13 31 17 33 53
29 21 -2 40 -6 42 -8z m244 -347 c2 -200 0 -287 -8 -297 -14 -17 -65 -2 -75
23 -28 71 -54 444 -38 532 8 43 10 44 46 45 20 1 40 5 44 9 21 21 28 -49 31
-312z m184 200 c15 -15 21 -193 13 -377 -5 -99 -10 -172 -12 -162 -6 22 -21
22 -19 0 1 -14 -7 -18 -34 -18 -31 0 -35 3 -42 35 -4 19 -9 144 -10 277 -3
230 -2 243 16 256 20 15 69 8 88 -11z m212 -258 c0 -209 -2 -243 -17 -264 -11
-16 -17 -19 -17 -10 -1 12 -4 11 -14 -3 -13 -16 -14 -16 -21 10 -4 18 -9 23
-14 14 -15 -23 -34 194 -29 332 5 147 9 160 63 183 26 11 31 10 40 -4 6 -10
10 -114 9 -258z m-6927 213 c9 -9 -40 -30 -71 -30 -17 0 -51 4 -75 8 l-44 8
29 12 c27 12 149 13 161 2z m7103 -57 c0 -5 7 -10 15 -10 24 0 28 -43 22 -234
-4 -143 -10 -192 -25 -236 -11 -30 -25 -54 -31 -52 -6 1 -11 -4 -11 -10 0 -7
-10 3 -22 22 -21 33 -22 49 -26 257 -2 123 -1 234 2 248 5 21 12 25 41 25 19
0 35 -4 35 -10z m212 -19 c29 -5 44 -268 24 -423 -7 -57 -36 -105 -55 -93 -7
3 -11 -3 -11 -17 -1 -14 -9 -2 -21 32 -19 51 -20 70 -15 262 3 114 9 216 15
226 9 17 26 20 63 13z m466 -46 c25 -55 5 -532 -23 -547 -8 -5 -16 -19 -16
-31 -1 -17 -2 -18 -6 -4 -2 9 -8 15 -13 12 -24 -15 -32 85 -26 304 6 220 6
225 32 258 30 40 37 41 52 8z m-223 -248 c0 -183 -2 -216 -17 -244 -24 -42
-35 -48 -55 -27 -15 15 -18 43 -21 186 -5 209 2 288 30 318 l21 22 21 -21 c20
-21 21 -31 21 -234z m-7377 185 c9 -28 -126 -92 -228 -107 -19 -3 -52 -8 -73
-11 -49 -8 -140 4 -163 21 -32 23 0 41 127 69 226 50 326 59 337 28z m5893
-318 c50 -48 34 -94 -31 -94 -48 0 -120 63 -120 105 l0 28 61 -6 c49 -4 67
-11 90 -33z m-1659 -271 c10 -9 18 -19 18 -23 0 -13 -34 -18 -58 -9 -19 7 -21
12 -12 29 13 24 28 25 52 3z m3686 -510 c4 -45 -51 -106 -97 -106 -40 0 -52
16 -40 57 13 46 63 88 102 84 28 -3 32 -7 35 -35z m166 -29 c24 -9 19 -43 -10
-81 -44 -58 -66 -74 -99 -71 -59 6 -41 68 35 124 49 36 51 37 74 28z m224
-132 c5 -37 -66 -102 -111 -102 -23 0 -28 28 -12 60 34 66 116 93 123 42z
m-5901 -19 c38 -43 46 -64 41 -119 -3 -38 -5 -39 -73 -67 -38 -15 -76 -26 -84
-25 -11 2 -19 26 -27 78 -21 129 -22 125 44 148 31 11 59 21 61 21 2 1 19 -16
38 -36z m6228 -128 c0 -33 -33 -65 -66 -65 -23 0 -30 6 -35 26 -5 18 -2 29 7
35 8 4 22 14 33 22 28 20 62 11 61 -18z m-6669 16 c-4 -5 -1 -11 6 -13 7 -3
12 -26 12 -58 1 -54 0 -55 -39 -74 -47 -23 -272 -105 -510 -186 -93 -32 -208
-73 -255 -90 -75 -29 -195 -70 -534 -186 -54 -19 -107 -34 -117 -34 -22 0 -32
31 -27 85 l3 38 100 34 c55 19 206 73 335 120 129 48 278 101 330 120 52 19
111 40 130 48 19 8 96 37 170 64 74 27 164 62 200 76 127 53 208 75 196 56z
m2984 -56 c568 -48 688 -62 751 -89 l34 -14 -35 -6 c-210 -36 -1217 -57 -1270
-27 -17 10 -50 14 -100 13 -96 -3 -250 -23 -250 -32 0 -9 -64 -5 -80 5 -37 23
9 55 177 126 l118 49 245 -6 c135 -3 319 -12 410 -19z m3900 -50 c13 -16 6
-35 -15 -35 -18 0 -28 17 -21 35 7 19 20 19 36 0z m-6695 -117 c18 -8 22 -14
13 -20 -8 -4 5 -8 32 -8 50 0 81 -14 65 -28 -19 -16 -139 -44 -143 -33 -6 17
-32 13 -32 -5 0 -8 -5 -12 -11 -9 -6 4 -26 4 -45 0 -28 -5 -34 -10 -29 -24 4
-15 -5 -23 -47 -41 -29 -12 -78 -33 -108 -47 -30 -14 -98 -40 -150 -59 -52
-19 -104 -38 -115 -43 -11 -5 -46 -21 -78 -36 -32 -14 -64 -24 -70 -21 -7 2
-4 5 6 5 9 1 17 5 17 11 0 5 17 14 38 20 42 13 79 37 69 46 -3 3 -36 -3 -73
-15 -37 -12 -74 -21 -81 -21 -8 0 -55 -17 -106 -39 -51 -21 -123 -49 -162 -61
-38 -12 -108 -36 -155 -52 -47 -16 -105 -35 -130 -43 -25 -7 -70 -22 -100 -34
-91 -37 -193 -71 -210 -71 -10 0 -20 14 -26 39 -12 44 -10 46 76 77 405 144
608 213 1110 381 206 69 382 129 390 134 20 11 25 11 55 -3z m1855 2 c13 -9
13 -11 0 -20 -8 -5 -23 -7 -32 -4 -10 3 -18 1 -18 -5 0 -6 -3 -10 -7 -9 -5 1
-24 -5 -43 -13 -19 -9 -74 -24 -123 -33 -48 -10 -99 -24 -115 -32 -15 -7 -36
-14 -48 -14 -11 0 -29 -9 -39 -20 -10 -11 -21 -17 -25 -15 -14 9 -60 -14 -60
-30 0 -10 -10 -15 -34 -15 -26 0 -40 -7 -59 -29 -17 -21 -31 -28 -45 -24 -14
3 -30 -4 -48 -22 -21 -22 -33 -26 -57 -21 -23 5 -33 1 -44 -14 -8 -11 -20 -20
-27 -20 -8 0 -17 -7 -20 -16 -6 -16 -8 -16 -24 0 -25 22 -49 20 -62 -4 -6 -11
-21 -20 -33 -20 -13 0 -29 -6 -35 -12 -10 -10 -15 -10 -22 2 -7 12 -12 11 -30
-5 -12 -11 -36 -19 -57 -19 -28 -1 -40 -7 -48 -23 -13 -25 -42 -15 -32 10 4
11 1 14 -9 10 -8 -3 -14 -10 -13 -17 3 -28 -2 -46 -15 -46 -8 0 -16 -7 -20
-15 -3 -8 -17 -15 -31 -15 -15 0 -33 -7 -41 -15 -9 -8 -29 -15 -45 -15 -26 0
-29 -3 -23 -24 3 -13 0 -34 -6 -47 l-12 -22 -30 32 c-29 31 -55 33 -44 4 3 -8
-3 -24 -14 -35 -17 -19 -20 -19 -26 -4 -3 9 -1 23 6 31 7 9 9 19 5 23 -4 4
-10 2 -12 -5 -2 -7 -10 -10 -18 -7 -7 3 -21 -6 -30 -20 -14 -22 -20 -24 -43
-15 -21 8 -29 7 -38 -5 -6 -9 -21 -16 -33 -16 -16 0 -21 6 -21 25 0 14 -4 25
-10 25 -5 0 -10 -7 -10 -16 0 -11 -6 -14 -20 -9 -16 5 -20 2 -20 -19 0 -14 -3
-26 -7 -26 -11 1 -44 27 -44 34 1 3 -1 6 -4 6 -3 0 -10 0 -15 0 -6 0 -8 -11
-6 -25 6 -31 -9 -41 -30 -21 -21 22 -54 21 -54 -1 0 -15 -2 -16 -10 -3 -8 13
-10 12 -10 -5 0 -15 -3 -16 -12 -7 -9 9 -18 6 -41 -16 -21 -20 -26 -22 -21 -8
7 18 6 18 -22 0 -16 -10 -23 -11 -16 -4 23 26 12 34 -13 10 -14 -13 -25 -18
-25 -12 0 24 65 61 113 64 26 2 47 6 47 10 0 9 71 32 91 30 9 -2 22 4 29 13 7
8 22 15 34 15 12 0 30 6 41 14 25 17 173 77 495 201 47 18 132 52 190 75 141
56 288 110 325 119 17 4 40 13 51 19 99 53 571 173 586 149 6 -9 8 -9 8 0 0
10 18 17 55 21 6 1 17 -3 25 -8z m2037 -20 c65 -11 151 -29 191 -40 86 -24
101 -25 84 -8 -17 17 -15 28 4 28 27 0 281 -90 384 -136 153 -67 243 -109 275
-126 44 -23 106 -83 98 -93 -5 -4 -3 -5 3 -2 7 4 23 -8 37 -26 14 -17 44 -52
66 -77 23 -25 48 -60 56 -77 9 -18 19 -33 23 -33 14 0 140 -176 183 -255 l44
-80 -1 -100 c-1 -55 -9 -134 -18 -175 -16 -77 -70 -200 -87 -200 -5 0 -9 22
-9 49 0 49 -8 92 -55 286 -13 55 -27 121 -31 147 -3 26 -10 46 -14 43 -4 -3
-11 5 -14 18 -6 22 -7 22 -21 3 -12 -16 -15 -17 -15 -4 0 8 -6 21 -14 27 -11
9 -15 8 -20 -6 -7 -16 -9 -16 -25 6 -13 17 -25 22 -39 19 -13 -4 -23 0 -26 9
-4 11 -10 11 -26 3 -15 -8 -20 -8 -20 1 0 14 -39 69 -50 69 -4 0 -10 -9 -13
-21 -4 -16 -12 -20 -34 -17 -22 2 -29 9 -31 31 -2 15 -8 25 -13 21 -5 -3 -7
-10 -4 -15 4 -5 -2 -9 -13 -9 -29 0 -162 -121 -188 -172 -13 -25 -13 -32 1
-57 8 -17 19 -32 25 -36 18 -11 98 -140 118 -190 52 -133 53 -194 5 -290 -16
-31 -83 -85 -107 -85 -7 0 -19 -7 -26 -15 -7 -8 -17 -15 -22 -15 -5 0 -28 -9
-50 -20 -23 -11 -54 -20 -69 -20 -15 0 -29 -4 -31 -10 -1 -5 -39 -12 -83 -15
-86 -7 -187 -33 -179 -47 3 -4 -4 -8 -15 -8 -11 0 -23 -5 -27 -12 -5 -8 5 -9
37 -4 24 4 113 18 198 30 150 21 211 23 211 5 0 -11 -85 -54 -225 -114 -61
-25 -133 -59 -161 -75 -27 -15 -85 -40 -127 -55 -42 -15 -90 -40 -106 -56 -40
-38 -250 -143 -373 -185 -146 -51 -396 -82 -713 -89 -77 -1 -158 -7 -180 -13
-51 -14 -400 -32 -620 -32 l-170 0 -13 -30 c-9 -20 -30 -37 -67 -55 -30 -14
-59 -25 -65 -25 -13 0 -182 -65 -212 -81 -10 -5 -22 -9 -27 -9 -5 0 -42 -15
-83 -34 -40 -18 -102 -42 -138 -51 -36 -10 -70 -22 -76 -26 -14 -11 -179 -29
-271 -29 -42 0 -93 7 -120 16 -42 15 -61 16 -159 5 -125 -14 -160 -9 -170 22
-4 12 -11 24 -15 27 -5 4 -2 16 7 28 12 17 25 22 60 22 39 0 49 -5 79 -37 31
-34 38 -37 82 -34 26 1 50 7 53 11 3 5 18 14 34 20 36 13 32 17 -38 35 -80 21
-158 61 -197 101 -29 30 -31 36 -20 57 28 52 90 66 235 52 45 -4 50 -2 87 35
22 22 44 40 48 40 5 0 12 11 15 25 4 14 13 25 22 25 8 0 20 13 25 30 6 16 15
28 20 25 4 -3 11 6 15 20 3 14 10 25 15 25 6 0 5 8 0 19 -9 16 -7 20 12 25 12
3 30 21 40 39 14 26 24 33 38 30 12 -3 19 0 19 8 0 8 41 34 90 58 50 24 90 48
90 52 0 5 -1 9 -3 9 -18 0 -432 -161 -494 -192 -11 -5 -26 -7 -32 -4 -11 7
-109 -21 -125 -35 -6 -5 -20 -9 -33 -9 -13 0 -23 -5 -23 -11 0 -5 -5 -7 -10
-4 -13 8 -90 -30 -124 -61 -14 -13 -30 -24 -35 -24 -6 0 -25 -9 -42 -19 -38
-23 -59 -18 -59 14 0 13 -5 27 -10 30 -6 4 -7 23 -4 46 4 22 3 39 -3 39 -5 0
-17 34 -27 75 -10 41 -21 75 -24 76 -4 0 -14 2 -22 3 -8 2 -71 6 -140 10 -144
8 -230 21 -280 43 -19 9 -39 15 -45 14 -5 -2 -7 1 -3 5 4 4 0 12 -9 19 -15 11
-15 15 5 43 25 34 95 87 157 117 22 10 59 32 82 47 23 15 44 28 48 28 3 0 25
9 48 19 100 45 475 72 724 52 78 -6 163 -13 190 -16 l48 -5 -40 10 c-57 15
-145 40 -180 53 -28 10 -45 23 -118 90 -16 15 -33 27 -37 27 -8 0 -40 89 -40
112 0 31 -46 73 -96 87 -69 19 -170 49 -231 68 -30 9 -53 22 -53 30 0 9 -16
13 -54 13 -33 0 -58 5 -65 14 -13 16 -4 25 47 47 17 8 32 17 32 20 0 3 26 11
58 18 31 7 95 21 142 31 253 55 376 69 690 80 506 17 651 24 585 30 l-60 6 69
8 c38 5 108 5 155 1 47 -5 100 -8 116 -8 64 -1 391 36 400 44 12 12 45 11 45
-1 0 -15 57 -12 64 3 5 10 7 10 12 0 7 -15 44 -17 44 -3 0 6 17 10 38 11 32 0
34 2 15 9 -13 5 -51 23 -85 39 -35 17 -88 39 -118 50 -30 10 -86 30 -125 44
-38 14 -90 31 -115 38 -67 19 -78 23 -135 49 -23 11 -78 28 -124 39 -75 18
-96 19 -195 10 -61 -6 -201 -30 -312 -54 -249 -54 -290 -60 -298 -46 -10 15
41 38 173 76 217 62 492 109 866 147 167 17 836 17 1035 0 479 -41 869 -134
970 -232 9 -8 28 -24 43 -35 35 -25 106 -120 119 -158 6 -15 13 -26 17 -25 65
34 62 34 85 8 49 -55 59 -54 118 3 66 64 118 162 152 287 38 139 33 225 -10
189 -30 -25 -52 -18 -59 17 -6 37 -23 53 -34 35 -9 -14 -50 -1 -70 23 -7 9
-26 16 -40 16 -16 0 -37 10 -51 25 -17 18 -29 23 -47 19 -17 -5 -34 0 -53 15
-17 12 -44 21 -64 21 -19 0 -42 7 -51 16 -11 12 -25 14 -47 10 -22 -4 -37 -1
-49 10 -13 12 -22 13 -37 5 -21 -11 -62 -4 -62 11 0 6 -14 8 -31 6 -25 -4 -32
-1 -39 18 -8 21 -12 22 -39 11 -29 -11 -33 -9 -76 33 -45 45 -57 70 -31 70 8
0 67 -9 133 -20z m3311 -22 c-3 -26 -43 -33 -44 -8 -1 23 5 30 27 30 15 0 20
-6 17 -22z m-8003 -358 c-3 -5 -14 -10 -23 -10 -15 0 -15 2 -2 10 20 13 33 13
25 0z m-145 -49 c0 -10 -54 -31 -81 -31 -28 0 -23 17 9 28 35 13 72 15 72 3z
m-120 -76 c0 -8 -44 -23 -53 -18 -14 8 4 23 29 23 13 0 24 -2 24 -5z m7918
-207 c29 -12 51 -23 48 -25 -5 -5 -159 56 -171 69 -5 5 8 2 30 -7 22 -9 64
-26 93 -37z m-7124 -25 c-51 -47 -72 -58 -25 -14 24 22 46 41 50 41 3 0 -8
-12 -25 -27z m1756 -93 c0 -5 -6 -10 -14 -10 -8 0 -18 5 -21 10 -3 6 3 10 14
10 12 0 21 -4 21 -10z m-1946 -72 c-11 -11 -54 -44 -96 -74 -42 -30 -100 -82
-129 -117 -53 -63 -175 -180 -240 -230 -28 -21 -38 -37 -43 -68 -9 -54 -80
-261 -102 -294 -11 -17 -24 -25 -38 -23 -19 3 -22 11 -26 83 -3 44 -9 86 -14
93 -8 13 110 141 355 385 119 118 341 295 348 276 1 -6 -5 -19 -15 -31z m1163
36 c-3 -3 -12 -4 -19 -1 -8 3 -5 6 6 6 11 1 17 -2 13 -5z m-1139 -512 c-1
-413 -6 -394 141 -534 53 -50 112 -101 131 -113 51 -33 170 -134 170 -144 0
-20 -31 -34 -53 -24 -36 17 -238 172 -295 227 -77 75 -159 186 -186 253 -13
32 -33 78 -44 103 -12 26 -25 86 -31 145 -16 151 -34 346 -35 380 l-1 30 95
10 c52 6 98 9 102 8 3 -2 6 -155 6 -341z m6580 336 c30 -30 6 -37 -28 -8 -21
19 -22 20 -4 20 11 0 25 -5 32 -12z m-8208 -10 c-14 -6 -38 -18 -55 -25 -16
-8 -41 -19 -55 -24 -21 -9 -23 -8 -12 3 7 7 39 23 70 35 58 22 97 30 52 11z
m9389 -2 c-11 -11 -132 -55 -121 -44 14 14 90 47 111 47 8 1 12 -1 10 -3z
m-9564 -66 c-3 -5 -12 -10 -18 -10 -7 0 -6 4 3 10 19 12 23 12 15 0z m9455
-39 c0 -5 -7 -12 -16 -15 -14 -5 -15 -4 -4 9 14 17 20 19 20 6z m-9818 -111
c-73 -30 -90 -35 -80 -24 10 10 122 54 138 53 8 0 -18 -13 -58 -29z m9578 -15
c0 -2 -21 -16 -47 -31 -27 -15 -74 -45 -105 -66 -54 -36 -125 -70 -103 -50 16
15 239 152 247 152 5 0 8 -2 8 -5z m-476 -205 c-10 -10 -231 -130 -239 -130
-3 0 -5 4 -5 8 0 5 39 27 88 50 48 23 101 51 117 62 31 21 56 27 39 10z m111
-10 c-3 -5 -16 -15 -28 -21 -21 -10 -21 -9 2 10 25 23 36 27 26 11z m-7962
-482 c40 -29 62 -57 63 -83 19 -314 28 -426 40 -550 9 -82 18 -179 21 -215 3
-36 11 -74 18 -85 7 -12 15 -30 18 -40 3 -11 5 43 5 120 0 77 1 154 2 170 l2
30 9 -30 c5 -19 7 10 4 79 -4 97 -3 112 16 142 19 31 19 35 4 57 -8 13 -18 55
-21 93 -3 38 -7 87 -9 109 -4 49 4 95 17 95 6 0 23 -9 39 -21 26 -19 28 -22
13 -36 -13 -13 -14 -30 -8 -102 4 -47 7 -96 7 -108 -1 -18 5 -23 22 -23 14 0
29 -11 40 -27 10 -16 29 -37 42 -48 19 -16 28 -38 39 -100 22 -120 23 -125 38
-125 8 0 16 -5 18 -11 2 -6 21 5 43 25 21 20 47 38 57 42 10 3 18 14 18 25 0
20 8 22 70 19 32 -1 38 3 55 36 24 45 107 95 144 87 21 -5 56 -22 146 -71 40
-22 95 -73 95 -88 0 -6 11 -19 25 -28 14 -9 25 -14 25 -10 0 7 78 -53 106 -82
34 -35 61 -47 71 -29 7 12 14 12 53 -1 25 -8 65 -24 90 -35 43 -19 56 -26 143
-71 21 -11 41 -28 46 -37 5 -9 14 -77 21 -151 6 -74 16 -166 22 -205 6 -38 12
-155 13 -260 2 -104 8 -265 13 -358 11 -207 3 -262 -42 -287 -21 -10 -29 -8
-72 22 -27 19 -68 41 -92 48 -27 9 -63 33 -96 65 -29 29 -65 55 -79 59 -24 6
-229 130 -267 161 -31 26 -58 27 -90 3 -39 -28 -56 -19 -87 45 -24 49 -84 102
-107 94 -10 -4 -14 -22 -13 -66 1 -34 -2 -61 -6 -61 -5 0 -21 8 -35 18 -15 10
-76 46 -137 79 -144 79 -155 85 -155 79 0 -6 110 -77 185 -121 57 -33 225
-184 225 -202 0 -16 -17 -17 -22 -1 -3 7 -12 9 -23 4 -17 -6 -17 -8 -2 -23 14
-15 20 -15 42 -3 14 7 25 19 25 27 0 17 15 16 72 -1 51 -15 124 -61 183 -116
36 -33 55 -43 119 -64 29 -10 10 -20 -47 -26 -77 -7 -73 -29 10 -64 83 -36 93
-43 90 -65 -1 -11 16 -32 43 -52 57 -44 62 -79 12 -95 -37 -12 -54 -31 -47
-54 2 -8 1 -21 -4 -28 -9 -14 -28 -6 -166 73 -33 19 -97 52 -142 74 -75 37
-83 43 -92 78 -6 21 -10 57 -9 81 0 24 -2 46 -6 49 -3 3 -29 7 -58 8 -46 2
-129 31 -190 65 -10 6 -25 10 -35 10 -9 0 -38 24 -64 53 -45 49 -49 51 -65 35
-16 -16 -16 -19 12 -45 17 -15 42 -44 57 -65 l28 -36 -22 -16 c-25 -17 -44
-11 -97 35 -18 16 -41 29 -52 29 -12 0 -30 16 -45 40 -14 22 -29 40 -33 40 -4
0 -29 18 -56 40 -55 46 -89 51 -151 21 -22 -11 -60 -27 -85 -37 -25 -10 -60
-29 -78 -42 -25 -18 -42 -23 -65 -20 -48 8 -56 1 -50 -38 6 -38 -15 -50 -24
-14 -4 16 -8 18 -19 9 -8 -6 -14 -20 -14 -30 0 -25 -62 -37 -93 -17 -12 8 -33
18 -47 21 -32 9 -66 77 -52 104 14 26 -41 86 -93 103 -43 14 -65 27 -65 41 0
14 80 51 117 54 18 2 37 6 43 10 6 4 22 -1 36 -10 27 -18 46 -13 26 7 -14 14
-16 48 -3 48 10 0 26 -19 26 -31 0 -11 62 -58 89 -68 31 -12 33 -3 8 30 -40
51 -34 81 16 83 19 1 28 5 25 14 -3 7 3 12 13 12 10 0 28 10 41 22 20 19 27
20 43 10 27 -17 32 -15 28 11 -2 16 2 22 17 22 48 1 107 18 112 33 4 9 1 18
-5 20 -7 2 -12 8 -12 14 0 6 8 4 18 -5 10 -10 22 -17 26 -17 4 0 14 -7 22 -15
17 -17 49 -21 39 -5 -3 6 -13 10 -21 10 -8 0 -14 9 -14 20 0 20 11 26 24 13
11 -11 44 -10 40 2 -3 6 8 12 26 13 18 1 33 -3 36 -11 3 -10 20 -13 56 -11 60
4 68 9 43 28 -24 18 -14 41 25 54 29 11 33 9 63 -24 54 -61 215 -174 247 -174
10 0 -16 108 -31 126 -12 14 -198 129 -254 156 -16 8 -42 22 -57 32 -25 16
-28 17 -28 2 0 -12 -9 -16 -34 -16 -44 0 -52 14 -26 40 17 17 19 24 10 36 -7
8 -21 12 -34 8 -14 -3 -31 3 -46 16 -32 28 -119 103 -147 127 -20 17 -22 30
-28 208 -7 196 -8 215 -19 325 -13 142 -27 363 -32 504 -6 182 2 200 69 154z
m-409 -113 c4 -38 9 -81 11 -95 3 -14 8 -41 11 -62 5 -30 10 -37 35 -40 17 -3
29 0 29 6 1 6 11 -2 24 -18 14 -16 22 -36 18 -44 -4 -10 -1 -13 7 -8 7 5 19 0
27 -10 14 -17 15 -17 10 -1 -3 9 -8 23 -11 30 -7 16 66 51 76 36 10 -16 49
-476 49 -583 0 -37 -1 -38 -14 -20 -14 18 -15 18 -21 2 -4 -10 -13 -18 -21
-18 -7 0 -38 -10 -69 -22 l-55 -23 0 -47 c0 -26 -4 -49 -8 -52 -7 -4 -202 101
-219 118 -10 9 -38 419 -48 701 -4 88 -9 168 -11 178 -3 9 2 25 11 34 15 14
25 15 66 6 38 -7 54 -7 67 3 24 18 30 8 36 -71z m6487 -255 c13 -8 19 -22 20
-48 0 -22 11 -54 27 -79 71 -111 129 -213 149 -258 57 -135 57 -137 58 -231 0
-89 -1 -95 -25 -111 -29 -21 -93 -37 -235 -58 -58 -9 -90 -18 -118 -32 -26
-13 -30 -13 -42 3 -11 16 -10 21 8 37 14 12 18 21 11 25 -6 4 -18 21 -27 39
-9 17 -29 41 -44 53 -21 17 -24 23 -13 30 10 6 3 19 -33 55 -26 26 -47 42 -47
36 0 -6 -7 -11 -15 -11 -17 0 -37 34 -27 46 4 5 3 6 -2 2 -5 -4 -16 -3 -23 4
-11 9 -16 9 -23 -1 -5 -8 -10 -9 -14 -3 -10 16 2 37 34 61 17 12 30 30 30 39
0 10 14 31 30 47 17 16 30 32 30 37 0 4 26 41 58 81 32 39 69 88 82 107 33 49
115 140 126 140 3 0 14 -5 25 -10z m-6887 -112 c17 -86 26 -154 21 -165 -7
-19 -42 -16 -49 3 -8 22 5 194 14 194 4 0 11 -15 14 -32z m4951 -68 c-3 -5
-10 -10 -16 -10 -5 0 -9 5 -9 10 0 6 7 10 16 10 8 0 12 -4 9 -10z m85 6 c0 -2
-16 -6 -35 -8 -19 -2 -35 0 -35 4 0 4 16 8 35 8 19 0 35 -2 35 -4z m-135 -16
c-3 -5 -12 -10 -20 -10 -7 0 -20 -6 -27 -12 -13 -12 -46 -29 -148 -76 -25 -11
-66 -30 -92 -41 -30 -14 -55 -20 -72 -15 -29 7 -26 24 5 24 25 0 24 12 -2 29
-17 10 -23 10 -29 1 -4 -7 -10 -8 -13 -3 -8 12 40 59 72 71 31 11 71 3 71 -14
0 -17 22 -18 38 -2 9 9 6 15 -16 24 -26 12 -24 12 28 14 30 1 69 6 85 10 46
12 127 12 120 0z m-418 -163 c4 -5 3 -11 -3 -15 -6 -4 -15 -18 -19 -30 -12
-41 -62 -53 -269 -62 -105 -5 -295 -10 -422 -12 -201 -3 -232 -1 -246 13 -18
18 -17 64 1 82 8 8 115 14 359 19 191 4 365 9 387 11 70 6 204 2 212 -6z
m-1117 -48 c0 -6 9 -23 20 -39 l19 -27 -25 -12 c-14 -6 -53 -11 -87 -11 -34 0
-100 -7 -147 -16 -77 -15 -204 -17 -457 -10 -48 1 -71 28 -49 58 10 14 19 15
57 6 87 -20 560 16 544 42 -6 10 23 17 83 19 24 0 42 -4 42 -10z m-682 -224
c38 -39 43 -48 37 -72 -13 -47 -10 -149 18 -653 34 -610 32 -600 76 -600 23 0
87 16 99 25 1 1 -3 15 -9 31 -17 42 -30 364 -18 449 6 39 12 87 15 108 5 35
39 85 51 73 3 -2 6 -24 8 -48 1 -24 10 -65 19 -91 33 -98 54 -230 61 -392 l5
-100 37 3 c20 2 46 -1 57 -6 12 -5 34 -13 51 -18 61 -19 44 -40 -81 -100 -64
-31 -126 -65 -138 -76 -12 -11 -52 -35 -91 -55 -38 -19 -77 -41 -85 -48 -9 -8
-42 -26 -74 -41 -71 -32 -155 -31 -201 3 l-29 21 -27 -38 c-15 -20 -46 -47
-70 -60 -143 -75 -191 -98 -253 -119 -38 -13 -90 -35 -115 -48 -25 -12 -49
-23 -53 -23 -4 0 -24 -12 -45 -26 -50 -33 -160 -84 -181 -83 -15 0 -15 1 -1 7
8 4 22 13 30 19 35 31 76 59 99 70 14 6 59 28 101 47 41 20 80 36 85 36 5 0
16 10 24 21 58 83 70 95 106 108 21 7 48 21 59 31 11 9 35 23 53 30 40 16 40
29 -2 60 -38 28 -37 45 5 88 43 44 75 48 143 18 l56 -25 55 29 c31 16 71 32
91 36 32 6 33 8 17 20 -16 12 -14 13 16 7 23 -4 36 -2 42 8 13 21 11 25 -12
26 -29 3 -56 29 -68 67 -5 17 -12 119 -15 226 -3 107 -10 251 -15 320 -12 146
-18 278 -27 558 -6 169 -5 205 7 213 25 16 41 9 87 -36z m-2420 -80 c-2 -1
-16 -5 -33 -9 l-30 -6 25 14 c14 8 28 12 33 9 5 -3 7 -6 5 -8z m27 -15 c3 -5
1 -10 -4 -10 -6 0 -11 5 -11 10 0 6 2 10 4 10 3 0 8 -4 11 -10z m43 -36 c-10
-10 -28 6 -28 24 0 15 1 15 17 -1 9 -9 14 -19 11 -23z m-46 -54 c12 -11 18
-20 13 -20 -5 0 -17 7 -27 17 -12 10 -18 12 -18 4 0 -7 -5 -9 -10 -6 -12 7 -4
25 11 25 5 0 19 -9 31 -20z m101 -75 c-3 -8 0 -15 6 -15 18 0 1 -27 -25 -39
-36 -16 -53 -13 -29 5 l20 15 -20 16 c-18 14 -18 15 -1 9 21 -7 49 11 39 27
-3 6 -1 7 5 3 6 -4 9 -13 5 -21z m2835 -41 c47 -33 62 -84 61 -206 0 -62 5
-144 11 -183 12 -76 6 -154 -17 -198 -19 -37 -10 -49 83 -116 76 -54 79 -58
82 -100 6 -76 -53 -114 -180 -115 -78 -1 -95 10 -115 76 -16 56 -16 166 1 197
10 17 11 33 4 55 -15 48 4 569 21 590 17 20 21 20 49 0z m-2937 -34 c5 0 9 -4
9 -9 0 -15 -41 -24 -52 -13 -14 14 0 35 19 28 8 -3 19 -6 24 -6z m-51 -42 c0
-4 -4 -8 -9 -8 -5 0 -16 -3 -25 -6 -12 -5 -16 0 -16 20 0 24 2 25 25 14 14 -6
25 -15 25 -20z m-70 -29 c0 -5 -7 -9 -15 -9 -15 0 -20 12 -9 23 8 8 24 -1 24
-14z m-66 -5 c20 -8 21 -24 2 -24 -8 0 -16 7 -20 15 -6 17 -4 18 18 9z m939
-39 c44 -43 47 -58 10 -44 -37 14 -113 62 -113 72 0 4 15 7 33 7 25 0 43 -9
70 -35z m-1165 -5 c-7 -10 -14 -18 -15 -16 -6 6 9 36 18 36 5 0 4 -9 -3 -20z
m202 10 c0 -5 -4 -10 -10 -10 -5 0 -10 5 -10 10 0 6 5 10 10 10 6 0 10 -4 10
-10z m-35 -10 c3 -5 1 -10 -4 -10 -6 0 -11 5 -11 10 0 6 2 10 4 10 3 0 8 -4
11 -10z m-61 -15 c11 -8 17 -15 14 -15 -4 0 -13 -3 -21 -6 -9 -3 -16 3 -20 15
-6 25 1 26 27 6z m-137 -19 c-3 -8 0 -19 6 -24 17 -13 45 -11 51 5 3 7 15 13
26 13 37 0 13 -17 -116 -79 -116 -57 -164 -69 -164 -41 0 4 -6 7 -12 6 -21 -2
-23 19 -3 23 11 2 25 11 31 20 7 9 16 13 20 8 4 -4 -1 -14 -12 -22 -19 -15
-19 -15 1 -30 18 -14 21 -14 32 1 6 9 17 13 23 9 9 -6 9 -2 2 12 -9 17 -7 19
19 17 22 -2 29 2 25 11 -3 9 0 12 10 8 7 -3 14 0 14 6 0 6 6 8 14 5 8 -3 23
-1 33 4 16 9 15 12 -10 23 -21 10 -30 10 -39 1 -18 -18 -32 -14 -17 4 23 28
75 44 66 20z m923 -56 c0 -5 -2 -10 -4 -10 -3 0 -8 5 -11 10 -3 6 -1 10 4 10
6 0 11 -4 11 -10z m270 0 c0 -5 -4 -10 -9 -10 -6 0 -13 5 -16 10 -3 6 1 10 9
10 9 0 16 -4 16 -10z m2544 -15 c36 -24 52 -37 81 -62 7 -7 18 -13 24 -13 6 0
11 -7 11 -15 0 -8 -4 -15 -10 -15 -5 0 -17 -16 -26 -35 -21 -46 -87 -115 -109
-115 -19 0 -76 29 -87 45 -4 6 -8 52 -8 103 0 79 3 95 20 112 27 27 60 25 104
-5z m-2754 -5 c-12 -12 -26 -18 -32 -14 -7 4 -2 12 13 20 35 19 42 17 19 -6z
m280 -21 c0 -5 -4 -9 -10 -9 -5 0 -10 7 -10 16 0 8 5 12 10 9 6 -3 10 -10 10
-16z m-1400 2 c0 -14 -18 -23 -31 -15 -8 4 -7 9 2 15 18 11 29 11 29 0z m6360
-31 c0 -5 -11 -10 -25 -10 -14 0 -25 5 -25 10 0 6 11 10 25 10 14 0 25 -4 25
-10z m-63 -22 c-3 -8 -6 -5 -6 6 -1 11 2 17 5 13 3 -3 4 -12 1 -19z m-77 -12
c0 -8 -15 -17 -36 -20 -19 -4 -43 -10 -52 -13 -15 -6 -15 -5 -3 10 7 9 26 17
42 17 15 0 31 5 34 10 9 14 15 12 15 -4z m37 8 c-3 -3 -12 -4 -19 -1 -8 3 -5
6 6 6 11 1 17 -2 13 -5z m-5377 -74 c0 -5 -5 -10 -11 -10 -5 0 -7 5 -4 10 3 6
8 10 11 10 2 0 4 -4 4 -10z m-55 -41 c0 -7 -8 -15 -17 -17 -18 -3 -25 18 -11
32 10 10 28 1 28 -15z m-158 -35 c-9 -9 -28 6 -21 18 4 6 10 6 17 -1 6 -6 8
-13 4 -17z m-247 -143 c0 -6 -4 -12 -9 -15 -13 -8 -42 4 -35 15 7 12 44 12 44
0z m-20 -53 c0 -4 -4 -8 -10 -8 -5 0 -10 -9 -10 -20 0 -13 5 -18 15 -14 8 4
15 1 15 -4 0 -6 13 -12 30 -14 44 -4 23 -27 -25 -28 -64 0 -115 11 -115 26 0
7 -13 20 -30 29 -16 9 -30 20 -30 25 0 12 46 12 75 1 29 -12 47 -2 40 20 -6
17 -4 18 19 8 14 -7 26 -16 26 -21z m-213 -68 c45 -22 55 -36 41 -62 -10 -20
-48 -25 -48 -6 0 7 -12 24 -26 39 -14 15 -23 32 -20 38 9 14 5 14 53 -9z
m2197 -5 c4 -11 -1 -15 -19 -15 -24 0 -32 10 -18 23 11 12 31 8 37 -8z m-1919
-65 c3 -5 1 -10 -4 -10 -6 0 -11 5 -11 10 0 6 2 10 4 10 3 0 8 -4 11 -10z
m1256 -3 c-1 -12 -15 -9 -19 4 -3 6 1 10 8 8 6 -3 11 -8 11 -12z m-1701 -32
c15 5 20 2 20 -10 0 -11 5 -15 15 -11 8 3 19 -3 25 -14 13 -24 13 -30 0 -30
-6 0 -20 -9 -32 -20 -12 -10 -25 -17 -30 -14 -5 3 -15 0 -23 -6 -8 -7 -16 -9
-17 -4 -4 23 -5 30 -13 47 -4 9 -18 17 -31 17 -13 0 -24 2 -24 5 0 3 17 20 38
39 35 32 37 33 44 15 6 -15 13 -19 28 -14z m268 13 c18 -18 14 -53 -7 -72 -19
-17 -20 -16 -36 18 -14 29 -15 39 -5 51 15 18 32 19 48 3z m1376 -34 c13 -5
14 -9 5 -20 -15 -18 -39 -18 -39 -1 0 12 9 27 16 27 1 0 10 -3 18 -6z m-1724
-44 c0 -5 -4 -10 -10 -10 -5 0 -10 5 -10 10 0 6 5 10 10 10 6 0 10 -4 10 -10z
m420 -4 c0 -16 -26 -46 -39 -46 -5 0 -14 7 -21 15 -10 12 -10 18 0 30 16 19
60 20 60 1z m1226 -51 c-3 -9 -10 -13 -16 -10 -12 7 -13 48 -3 59 11 11 27
-30 19 -49z m28 -47 c18 -25 21 -132 7 -207 -14 -70 -58 -89 -124 -54 -18 9
-41 18 -52 20 -11 2 -26 10 -34 17 -11 12 -6 17 32 34 47 21 56 34 92 137 29
81 50 95 79 53z m-627 -273 c16 -16 11 -45 -7 -45 -9 0 -30 40 -30 56 0 10 23
3 37 -11z m336 -118 c43 -38 47 -68 12 -87 -51 -27 -94 38 -69 104 9 22 15 20
57 -17z m8184 -942 c60 -47 102 -95 103 -115 1 -44 -95 -130 -144 -130 -8 0
-16 -5 -18 -11 -2 -7 -13 -5 -31 4 -14 8 -23 18 -19 22 4 5 -1 5 -10 2 -12 -4
-15 -2 -11 9 3 9 0 14 -8 12 -7 -2 -13 2 -14 7 0 6 -4 16 -8 23 -5 6 -5 17 -1
24 4 6 3 8 -4 4 -7 -4 -13 13 -17 47 -17 136 75 187 182 102z m-9630 -244 c18
-17 20 -28 15 -121 -3 -58 -1 -101 4 -99 46 21 84 44 84 51 0 4 -9 12 -19 17
-18 10 -46 69 -37 78 7 7 70 -28 83 -46 34 -44 5 -109 -66 -145 -28 -15 -38
-16 -62 -5 -17 6 -34 20 -39 30 -6 10 -10 72 -10 138 0 129 5 141 47 102z
m2898 -53 c28 -13 30 -19 13 -36 -13 -13 -57 -16 -74 -4 -20 14 -24 41 -6 45
30 8 40 7 67 -5z"/>
<path d="M8144 9191 c-5 -4 -29 -13 -52 -20 -38 -11 -43 -15 -38 -34 3 -12 6
-32 6 -43 0 -18 8 -22 48 -28 27 -3 62 -3 79 0 l31 6 -24 48 c-13 26 -24 53
-24 58 0 15 -15 23 -26 13z"/>
<path d="M2570 6140 c-25 -10 -54 -21 -64 -25 -10 -3 -16 -8 -13 -12 4 -3 26
1 49 10 24 8 56 18 71 21 15 4 25 11 22 16 -8 12 -10 12 -65 -10z"/>
<path d="M2440 6090 c-12 -8 -11 -10 7 -10 12 0 25 5 28 10 8 13 -15 13 -35 0z"/>
<path d="M2230 6000 c-8 -5 -10 -10 -5 -10 6 0 17 5 25 10 8 5 11 10 5 10 -5
0 -17 -5 -25 -10z"/>
<path d="M8063 5240 c0 -47 2 -66 4 -42 2 23 2 61 0 85 -2 23 -4 4 -4 -43z"/>
<path d="M6264 5055 c-6 -13 -8 -29 -4 -35 5 -8 10 -1 15 19 9 40 3 47 -11 16z"/>
<path d="M6303 4834 c-2 -74 -41 -154 -106 -218 -56 -55 -158 -130 -217 -162
-43 -22 -142 -64 -153 -64 -5 0 -32 -11 -60 -24 -132 -61 -145 -64 -382 -91
-252 -29 -542 -17 -732 31 -80 20 -102 13 -43 -14 39 -18 313 -66 496 -87 56
-6 288 16 422 41 140 25 407 127 517 197 100 63 215 158 215 177 0 5 9 10 19
10 22 0 36 16 22 24 -5 4 -3 25 5 53 15 49 19 169 7 176 -5 3 -9 -19 -10 -49z"/>
<path d="M2275 4940 c-26 -29 -15 -32 13 -4 12 13 19 24 14 24 -5 0 -17 -9
-27 -20z"/>
<path d="M1614 3140 c0 -58 1 -81 3 -52 2 28 2 76 0 105 -2 28 -3 5 -3 -53z"/>
<path d="M1495 2630 c-3 -5 1 -13 10 -16 22 -9 29 1 11 15 -10 8 -16 9 -21 1z"/>
<path d="M1355 2550 c3 -5 11 -10 16 -10 6 0 7 5 4 10 -3 6 -11 10 -16 10 -6
0 -7 -4 -4 -10z"/>
<path d="M1850 2540 c20 -13 33 -13 25 0 -3 6 -14 10 -23 10 -15 0 -15 -2 -2
-10z"/>
<path d="M1910 2502 c0 -14 11 -21 26 -15 8 3 11 9 8 14 -7 11 -34 12 -34 1z"/>
<path d="M1979 2459 c13 -11 27 -17 30 -13 7 7 -28 34 -43 34 -6 -1 0 -10 13
-21z"/>
<path d="M2020 2430 c0 -5 7 -10 16 -10 8 0 12 5 9 10 -3 6 -10 10 -16 10 -5
0 -9 -4 -9 -10z"/>
<path d="M1063 2405 c-12 -8 -29 -12 -38 -9 -16 6 -34 -9 -35 -29 0 -10 74 3
78 14 2 5 12 9 23 9 12 0 16 5 13 15 -8 19 -14 19 -41 0z"/>
<path d="M2107 2383 c-6 -5 83 -63 98 -63 18 0 -1 22 -39 44 -49 29 -50 29
-59 19z"/>
<path d="M2049 2350 c-15 -16 -15 -19 -1 -33 14 -14 17 -13 35 10 17 21 18 26
6 34 -18 11 -21 11 -40 -11z"/>
<path d="M1878 2353 c7 -3 16 -2 19 1 4 3 -2 6 -13 5 -11 0 -14 -3 -6 -6z"/>
<path d="M2120 2321 c-5 -11 -10 -24 -10 -28 0 -14 53 -40 73 -36 23 6 22 20
-2 33 -11 5 -23 19 -26 30 -8 25 -21 26 -35 1z"/>
<path d="M1190 2241 c0 -11 26 -22 34 -14 3 3 3 10 0 14 -7 12 -34 11 -34 0z"/>
<path d="M1247 3857 c-3 -19 -2 -49 3 -68 7 -29 8 -24 9 34 1 73 -3 86 -12 34z"/>
<path d="M1222 3785 c0 -16 2 -22 5 -12 2 9 2 23 0 30 -3 6 -5 -1 -5 -18z"/>
<path d="M7160 3455 c0 -8 7 -15 16 -15 14 0 14 3 4 15 -7 8 -14 15 -16 15 -2
0 -4 -7 -4 -15z"/>
<path d="M321 2074 c0 -11 3 -14 6 -6 3 7 2 16 -1 19 -3 4 -6 -2 -5 -13z"/>
<path d="M9357 8002 c3 -12 18 -25 34 -31 16 -5 39 -19 51 -31 20 -19 30 -21
84 -15 41 4 64 3 69 -5 13 -22 141 -79 156 -69 23 14 48 10 69 -11 11 -11 29
-20 39 -20 11 0 34 -13 52 -30 18 -16 36 -27 40 -24 4 2 10 0 14 -5 4 -7 15
-7 31 -1 38 15 94 13 94 -3 0 -8 18 -19 40 -26 21 -6 46 -18 55 -27 19 -20 55
-9 55 16 0 12 -12 22 -35 30 -35 12 -49 44 -22 53 6 2 -3 6 -21 9 -21 3 -39 0
-47 -9 -8 -7 -24 -13 -36 -13 -29 0 -112 42 -99 50 12 7 -34 35 -75 44 -28 7
-29 6 -10 -7 11 -8 29 -17 40 -20 19 -4 19 -5 -1 -6 -22 -1 -119 29 -237 73
-37 14 -83 26 -102 26 -19 0 -49 6 -67 14 -18 8 -49 21 -68 29 -19 9 -52 18
-72 22 -33 6 -36 5 -31 -13z"/>
<path d="M10210 7806 c0 -2 7 -6 15 -10 8 -3 15 -1 15 4 0 6 -7 10 -15 10 -8
0 -15 -2 -15 -4z"/>
<path d="M617 1579 c-16 -4 -39 -19 -51 -33 l-24 -24 39 -38 c40 -39 42 -38
39 8 -1 14 6 41 15 58 9 18 15 33 13 34 -2 2 -16 0 -31 -5z"/>
<path d="M65 1060 c3 -5 0 -10 -7 -10 -7 -1 2 -7 21 -16 25 -10 38 -11 45 -4
8 8 5 9 -9 5 -19 -6 -19 -6 -2 8 16 14 16 15 -5 21 -34 9 -50 7 -43 -4z"/>
<path d="M0 998 c0 -15 4 -17 18 -10 9 5 24 11 32 14 8 3 0 7 -17 10 -27 4
-33 1 -33 -14z"/>
<path d="M105 990 c3 -5 8 -10 11 -10 2 0 4 5 4 10 0 6 -5 10 -11 10 -5 0 -7
-4 -4 -10z"/>
</g>
</svg>
